<svg width="108" height="108" viewBox="0 0 108 108" fill="none" xmlns="http://www.w3.org/2000/svg">
<g filter="url(#filter0_d_2_4)">
<path d="M104 50C76.3858 50 54 72.3858 54 100C54 72.3858 31.6142 50 4 50C31.6142 50 54 27.6142 54 -7.62939e-06C54 27.6142 76.3858 50 104 50Z" fill="#25E4F5"/>
<path d="M104 50C76.3858 50 54 72.3858 54 100C54 72.3858 31.6142 50 4 50C31.6142 50 54 27.6142 54 -7.62939e-06C54 27.6142 76.3858 50 104 50Z" fill="#25E4F5"/>
</g>
<defs>
<filter id="filter0_d_2_4" x="0" y="0" width="108" height="108" filterUnits="userSpaceOnUse" color-interpolation-filters="sRGB">
<feFlood flood-opacity="0" result="BackgroundImageFix"/>
<feColorMatrix in="SourceAlpha" type="matrix" values="0 0 0 0 0 0 0 0 0 0 0 0 0 0 0 0 0 0 127 0" result="hardAlpha"/>
<feOffset dy="4"/>
<feGaussianBlur stdDeviation="2"/>
<feComposite in2="hardAlpha" operator="out"/>
<feColorMatrix type="matrix" values="0 0 0 0 0 0 0 0 0 0 0 0 0 0 0 0 0 0 0.25 0"/>
<feBlend mode="normal" in2="BackgroundImageFix" result="effect1_dropShadow_2_4"/>
<feBlend mode="normal" in="SourceGraphic" in2="effect1_dropShadow_2_4" result="shape"/>
</filter>
</defs>
</svg>
